<svg xmlns="http://www.w3.org/2000/svg" width="28.627" height="28.808" viewBox="0 0 28.627 28.808">
  <g id="icon_wall-canvases_home-decoration" transform="translate(0.75 0.75)">
    <g id="Group_3012" data-name="Group 3012">
      <g id="Group_2528" data-name="Group 2528">
        <rect id="Rectangle_3856" data-name="Rectangle 3856" width="8.545" height="27.308" transform="translate(9.293)" fill="none" stroke="#404041" stroke-linecap="round" stroke-linejoin="round" stroke-width="1.5"/>
        <rect id="Rectangle_3857" data-name="Rectangle 3857" width="7.002" height="20.15" transform="translate(0 3.579)" fill="none" stroke="#404041" stroke-linecap="round" stroke-linejoin="round" stroke-width="1.5"/>
        <rect id="Rectangle_3858" data-name="Rectangle 3858" width="7.002" height="20.15" transform="translate(20.125 3.579)" fill="none" stroke="#404041" stroke-linecap="round" stroke-linejoin="round" stroke-width="1.5"/>
        <path id="Path_7364" data-name="Path 7364" d="M749.042,4268.649a3.867,3.867,0,0,0-3.863-3.87,3.991,3.991,0,0,0-1.157.192,3.8,3.8,0,0,0-.223-.985v14.422a3.77,3.77,0,0,0,1.693-.693,3.815,3.815,0,0,0,1.131-1.35,6.171,6.171,0,0,1,2.419-7.717Z" transform="translate(-723.674 -4257.37)" fill="none" stroke="#404041" stroke-linecap="round" stroke-linejoin="round" stroke-width="1.5"/>
        <ellipse id="Ellipse_28" data-name="Ellipse 28" cx="2.566" cy="2.572" rx="2.566" ry="2.572" transform="translate(10.973 10.355)" fill="none" stroke="#404041" stroke-linecap="round" stroke-linejoin="round" stroke-width="1.5"/>
        <path id="Path_7365" data-name="Path 7365" d="M739.9,4264.289a4.243,4.243,0,0,0-.435.1,3.843,3.843,0,0,0-7.663,0,4.3,4.3,0,0,0-.447-.1v13.4a3.807,3.807,0,0,0,1.143.2,3.85,3.85,0,0,0,3.106-1.539,3.8,3.8,0,0,0,4.3,1.308Z" transform="translate(-722.057 -4256.961)" fill="none" stroke="#404041" stroke-linecap="round" stroke-linejoin="round" stroke-width="1.5"/>
        <path id="Path_7366" data-name="Path 7366" d="M722.7,4268.649a3.866,3.866,0,0,1,3.863-3.87,3.98,3.98,0,0,1,1.156.192,3.832,3.832,0,0,1,.224-.985v14.422a3.74,3.74,0,0,1-2.824-2.042,6.171,6.171,0,0,0-2.419-7.717Z" transform="translate(-720.933 -4257.37)" fill="none" stroke="#404041" stroke-linecap="round" stroke-linejoin="round" stroke-width="1.5"/>
      </g>
    </g>
  </g>
</svg>
