<svg xmlns="http://www.w3.org/2000/svg" width="24.668" height="25.832" viewBox="0 0 24.668 25.832">
  <g id="icon_idea" transform="translate(0.75 0.75)">
    <path id="Path_7087" data-name="Path 7087" d="M721.324,4003.492a6.446,6.446,0,0,0-11.255,6.286c.033.059.066.118.1.175l.048.081a.238.238,0,0,0,.015.033l2.682,4.614v1.3a.572.572,0,0,0,0,.058.515.515,0,0,0,0,.055v.882a2.8,2.8,0,0,0,2.8,2.793h.064a2.806,2.806,0,0,0,2.8-2.8V4014.7l2.677-4.6.015-.028a.324.324,0,0,0,.03-.073l.018-.028A6.452,6.452,0,0,0,721.324,4003.492Z" transform="translate(-704.137 -3995.441)" fill="none" stroke="#404041" stroke-linecap="round" stroke-linejoin="round" stroke-width="1.5"/>
    <line id="Line_177" data-name="Line 177" x2="5.665" transform="translate(8.752 19.24)" fill="none" stroke="#404041" stroke-linecap="round" stroke-linejoin="round" stroke-width="1.5"/>
    <line id="Line_178" data-name="Line 178" x2="5.665" transform="translate(8.752 21.273)" fill="none" stroke="#404041" stroke-linecap="round" stroke-linejoin="round" stroke-width="1.5"/>
    <g id="Group_2395" data-name="Group 2395" transform="translate(-704.137 -3995.441)">
      <line id="Line_179" data-name="Line 179" y1="2.267" transform="translate(715.723 4012.005)" fill="none" stroke="#404041" stroke-linecap="round" stroke-linejoin="round" stroke-width="1.5"/>
      <line id="Line_180" data-name="Line 180" x2="1.531" y2="1.531" transform="translate(714.203 4010.474)" fill="none" stroke="#404041" stroke-linecap="round" stroke-linejoin="round" stroke-width="1.5"/>
      <line id="Line_181" data-name="Line 181" x1="1.531" y2="1.531" transform="translate(715.709 4010.474)" fill="none" stroke="#404041" stroke-linecap="round" stroke-linejoin="round" stroke-width="1.5"/>
    </g>
    <line id="Line_182" data-name="Line 182" y1="1.982" transform="translate(11.586)" fill="none" stroke="#404041" stroke-linecap="round" stroke-linejoin="round" stroke-width="1.5"/>
    <line id="Line_183" data-name="Line 183" y1="1.417" x2="1.417" transform="translate(19.439 4.08)" fill="none" stroke="#404041" stroke-linecap="round" stroke-linejoin="round" stroke-width="1.5"/>
    <line id="Line_184" data-name="Line 184" x1="1.417" y1="1.417" transform="translate(1.721 4.08)" fill="none" stroke="#404041" stroke-linecap="round" stroke-linejoin="round" stroke-width="1.5"/>
    <line id="Line_185" data-name="Line 185" x2="1.809" transform="translate(21.359 11.564)" fill="none" stroke="#404041" stroke-linecap="round" stroke-linejoin="round" stroke-width="1.5"/>
    <line id="Line_186" data-name="Line 186" x2="1.809" transform="translate(0 11.564)" fill="none" stroke="#404041" stroke-linecap="round" stroke-linejoin="round" stroke-width="1.5"/>
  </g>
</svg>
