<svg xmlns="http://www.w3.org/2000/svg" width="33.401" height="28.533" viewBox="0 0 33.401 28.533">
  <g id="icon_alarms" transform="translate(0.75 0.75)">
    <g id="Group_3010" data-name="Group 3010" transform="translate(0)">
      <circle id="Ellipse_268" data-name="Ellipse 268" cx="8.226" cy="8.226" r="8.226" transform="translate(8.764)" fill="none" stroke="#404041" stroke-linecap="round" stroke-linejoin="round" stroke-width="1.5"/>
      <circle id="Ellipse_269" data-name="Ellipse 269" cx="2.527" cy="2.527" r="2.527" transform="translate(14.463 5.699)" fill="none" stroke="#404041" stroke-linecap="round" stroke-linejoin="round" stroke-width="1.5"/>
      <path id="Path_7388" data-name="Path 7388" d="M1243.017,4275.276a12.5,12.5,0,0,1,.369-11.106" transform="translate(-1237.381 -4261.867)" fill="none" stroke="#404041" stroke-linecap="round" stroke-linejoin="round" stroke-width="1.5"/>
      <path id="Path_7389" data-name="Path 7389" d="M1238.88,4277.129a16.68,16.68,0,0,1,.491-14.812" transform="translate(-1237.381 -4261.867)" fill="none" stroke="#404041" stroke-linecap="round" stroke-linejoin="round" stroke-width="1.5"/>
      <path id="Path_7390" data-name="Path 7390" d="M1254.372,4282.342a12.193,12.193,0,0,1-5.958-1.55v5.977a2.132,2.132,0,0,0,2.132,2.131h6.845a2.131,2.131,0,0,0,2.132-2.131v-5.574A12.18,12.18,0,0,1,1254.372,4282.342Z" transform="translate(-1237.381 -4261.867)" fill="none" stroke="#404041" stroke-linecap="round" stroke-linejoin="round" stroke-width="1.5"/>
      <path id="Path_7391" data-name="Path 7391" d="M1265.7,4274.766a12.252,12.252,0,0,1-11.326,7.576" transform="translate(-1237.381 -4261.867)" fill="none" stroke="#404041" stroke-linecap="round" stroke-linejoin="round" stroke-width="1.5"/>
      <circle id="Ellipse_270" data-name="Ellipse 270" cx="2.364" cy="2.364" r="2.364" transform="translate(27.172 8.227)" fill="none" stroke="#404041" stroke-linecap="round" stroke-linejoin="round" stroke-width="1.5"/>
    </g>
  </g>
</svg>
