<svg xmlns="http://www.w3.org/2000/svg" width="29.925" height="29.874" viewBox="0 0 29.925 29.874">
  <g id="icon_help" transform="translate(0.75 0.75)">
    <path id="Path_5926" data-name="Path 5926" d="M330.637-415.85a14.039,14.039,0,0,1-8.23-2.63c-.217-.145-.732-.3-.9-.138l-3.251.9.9-3.253a1.382,1.382,0,0,0-.138-.9,14.062,14.062,0,0,1-2.628-8.235,14.292,14.292,0,0,1,14.246-14.118,14.2,14.2,0,0,1,14.178,14.187A14.2,14.2,0,0,1,330.637-415.85Z" transform="translate(-316.391 444.224)" fill="none" stroke="#fff" stroke-linecap="round" stroke-linejoin="round" stroke-width="1.5"/>
    <path id="Path_5927" data-name="Path 5927" d="M334.286-429.355a4.478,4.478,0,0,1,4.477-4.48,4.47,4.47,0,0,1,4.477,4.48c-.024,4.612-4.54,3.3-4.54,6.689" transform="translate(-324.579 439.474)" fill="none" stroke="#fff" stroke-linecap="round" stroke-linejoin="round" stroke-width="1.5"/>
    <ellipse id="Ellipse_186" data-name="Ellipse 186" cx="1.647" cy="1.648" rx="1.647" ry="1.648" transform="translate(12.538 19.45)" fill="#fff"/>
  </g>
</svg>
