<svg xmlns="http://www.w3.org/2000/svg" width="31.154" height="28.981" viewBox="0 0 31.154 28.981">
  <g id="icon_advent-calendars" transform="translate(0.75 0.75)">
    <g id="Group_3011" data-name="Group 3011">
      <rect id="Rectangle_3865" data-name="Rectangle 3865" width="29.654" height="25.582" rx="1.76" transform="translate(0 1.898)" fill="none" stroke="#404041" stroke-linecap="round" stroke-linejoin="round" stroke-width="1.5"/>
      <line id="Line_387" data-name="Line 387" x2="29.654" transform="translate(0 7.297)" fill="none" stroke="#404041" stroke-linecap="round" stroke-linejoin="round" stroke-width="1.5"/>
      <line id="Line_388" data-name="Line 388" y2="3.832" transform="translate(3.984)" fill="none" stroke="#404041" stroke-linecap="round" stroke-linejoin="round" stroke-width="1.5"/>
      <line id="Line_389" data-name="Line 389" y2="3.832" transform="translate(8.297)" fill="none" stroke="#404041" stroke-linecap="round" stroke-linejoin="round" stroke-width="1.5"/>
      <line id="Line_390" data-name="Line 390" y2="3.832" transform="translate(12.609)" fill="none" stroke="#404041" stroke-linecap="round" stroke-linejoin="round" stroke-width="1.5"/>
      <line id="Line_391" data-name="Line 391" y2="3.832" transform="translate(16.922)" fill="none" stroke="#404041" stroke-linecap="round" stroke-linejoin="round" stroke-width="1.5"/>
      <line id="Line_392" data-name="Line 392" y2="3.832" transform="translate(21.236)" fill="none" stroke="#404041" stroke-linecap="round" stroke-linejoin="round" stroke-width="1.5"/>
      <line id="Line_393" data-name="Line 393" y2="3.832" transform="translate(25.549)" fill="none" stroke="#404041" stroke-linecap="round" stroke-linejoin="round" stroke-width="1.5"/>
      <path id="Path_7374" data-name="Path 7374" d="M999.7,4273.8a3.156,3.156,0,1,0,3.7,4.391" transform="translate(-985.424 -4259.637)" fill="none" stroke="#404041" stroke-linecap="round" stroke-linejoin="round" stroke-width="1.5"/>
      <path id="Path_7375" data-name="Path 7375" d="M1005.011,4279.539l2.68-2.681-2.68-2.68v-2.186h-2.186l-2.68-2.681-2.68,2.681H995.28v2.185l-2.68,2.68,2.68,2.681v2.186h2.186l2.68,2.68,2.68-2.68h2.186Z" transform="translate(-985.424 -4259.637)" fill="none" stroke="#404041" stroke-linecap="round" stroke-linejoin="round" stroke-width="1.5"/>
      <path id="Path_5744" data-name="Path 5744" d="M1001.244,4275.509l.68.09a.089.089,0,0,1,.079.1.085.085,0,0,1-.03.057l-.494.469.124.673a.092.092,0,0,1-.071.108.1.1,0,0,1-.062-.009l-.6-.327-.6.327a.1.1,0,0,1-.127-.043.091.091,0,0,1-.009-.056l.127-.673-.5-.469a.091.091,0,0,1,0-.13.084.084,0,0,1,.054-.027l.676-.09.293-.617a.092.092,0,0,1,.127-.039h0a.087.087,0,0,1,.04.039Z" transform="translate(-985.424 -4259.637)" fill="#404041"/>
    </g>
  </g>
</svg>
