<svg xmlns="http://www.w3.org/2000/svg" width="30.724" height="32.488" viewBox="0 0 30.724 32.488">
  <g id="icon_car-freshners" transform="translate(0.752 0.75)">
    <g id="Group_3007" data-name="Group 3007" transform="translate(0)">
      <path id="Path_7387" data-name="Path 7387" d="M1181.733,4261.453h-24.274a1.915,1.915,0,0,0-1.905,1.716l-.557,5.342a1.915,1.915,0,0,0,1.9,2.114h25.39a1.916,1.916,0,0,0,1.905-2.114l-.558-5.342A1.915,1.915,0,0,0,1181.733,4261.453Z" transform="translate(-1154.986 -4258.846)" fill="none" stroke="#404041" stroke-linecap="round" stroke-linejoin="round" stroke-width="1.5"/>
      <line id="Line_394" data-name="Line 394" y1="2.607" transform="translate(14.609)" fill="none" stroke="#404041" stroke-linecap="round" stroke-linejoin="round" stroke-width="1.5"/>
      <line id="Line_395" data-name="Line 395" y2="8.039" transform="translate(14.609 11.779)" fill="none" stroke="#404041" stroke-linecap="round" stroke-linejoin="round" stroke-width="1.5"/>
      <circle id="Ellipse_267" data-name="Ellipse 267" cx="1.522" cy="1.522" r="1.522" transform="translate(13.088 19.818)" fill="none" stroke="#404041" stroke-linecap="round" stroke-linejoin="round" stroke-width="1.5"/>
      <path id="Path_5744" data-name="Path 5744" d="M1172.516,4278.156l5.3.7a.7.7,0,0,1,.383,1.226l-3.852,3.657.962,5.24a.711.711,0,0,1-.55.841.722.722,0,0,1-.481-.07l-4.691-2.55-4.671,2.55a.737.737,0,0,1-1.057-.771l.987-5.24-3.874-3.658a.717.717,0,0,1-.016-1.013.709.709,0,0,1,.425-.213l5.269-.7,2.279-4.812a.734.734,0,0,1,.995-.3h0a.749.749,0,0,1,.306.3Z" transform="translate(-1154.986 -4258.846)" fill="none" stroke="#404041" stroke-linecap="round" stroke-linejoin="round" stroke-width="1.5"/>
      <line id="Line_396" data-name="Line 396" x1="9.172" y2="9.172" transform="translate(8.479 2.607)" fill="none" stroke="#404041" stroke-linecap="round" stroke-linejoin="round" stroke-width="1.5"/>
      <line id="Line_397" data-name="Line 397" y1="3.717" x2="3.717" transform="translate(18.135 5.455)" fill="none" stroke="#404041" stroke-linecap="round" stroke-linejoin="round" stroke-width="1.5"/>
    </g>
  </g>
</svg>
