<svg xmlns="http://www.w3.org/2000/svg" width="13.867" height="15.134" viewBox="0 0 13.867 15.134">
  <g id="icon_trash" transform="translate(0.625 0.625)">
    <path id="Rectangle_3594" data-name="Rectangle 3594" d="M0,0H9.382a0,0,0,0,1,0,0V9.212a2.5,2.5,0,0,1-2.5,2.5H2.5A2.5,2.5,0,0,1,0,9.212V0A0,0,0,0,1,0,0Z" transform="translate(1.617 2.172)" fill="none" stroke="#ee5f3b" stroke-linecap="round" stroke-linejoin="round" stroke-width="1.25"/>
    <line id="Line_251" data-name="Line 251" x2="12.617" transform="translate(0 2.172)" fill="none" stroke="#ee5f3b" stroke-linecap="round" stroke-linejoin="round" stroke-width="1.25"/>
    <path id="Rectangle_3595" data-name="Rectangle 3595" d="M1,0H2.108a1,1,0,0,1,1,1V2.172a0,0,0,0,1,0,0H0a0,0,0,0,1,0,0V1A1,1,0,0,1,1,0Z" transform="translate(4.754)" fill="none" stroke="#ee5f3b" stroke-linecap="round" stroke-linejoin="round" stroke-width="1.25"/>
    <g id="Group_2503" data-name="Group 2503" transform="translate(-1093.014 -4081.62)">
      <line id="Line_252" data-name="Line 252" y2="5.816" transform="translate(1097.768 4086.705)" fill="none" stroke="#ee5f3b" stroke-linecap="round" stroke-linejoin="round" stroke-width="1.25"/>
      <line id="Line_253" data-name="Line 253" y2="5.816" transform="translate(1100.875 4086.74)" fill="none" stroke="#ee5f3b" stroke-linecap="round" stroke-linejoin="round" stroke-width="1.25"/>
    </g>
  </g>
</svg>
