<svg xmlns="http://www.w3.org/2000/svg" width="24.571" height="30.058" viewBox="0 0 24.571 30.058">
  <g id="icon_children-teen" transform="translate(0.75 0.75)">
    <g id="Group_2634" data-name="Group 2634" transform="translate(-1159.616 -408.702)">
      <path id="Path_7514" data-name="Path 7514" d="M1182.687,437.26h-20.974a2.076,2.076,0,0,1-2.076-2.076h0a2.075,2.075,0,0,1,2.076-2.076h20.835l-.031-24.406h-9.491" fill="none" stroke="#404041" stroke-linecap="round" stroke-linejoin="round" stroke-width="1.5"/>
      <line id="Line_412" data-name="Line 412" y2="4.152" transform="translate(1180.651 433.107)" fill="none" stroke="#404041" stroke-linecap="round" stroke-linejoin="round" stroke-width="1.5"/>
      <path id="Path_7517" data-name="Path 7517" d="M1173.263,408.7h-12.154a1.493,1.493,0,0,0-1.493,1.493h0l.02,25.031" fill="none" stroke="#404041" stroke-linecap="round" stroke-linejoin="round" stroke-width="1.5"/>
      <g id="Group_2633" data-name="Group 2633">
        <circle id="Ellipse_322" data-name="Ellipse 322" cx="5.1" cy="5.1" r="5.1" transform="translate(1165.826 417.011)" fill="none" stroke="#404041" stroke-linecap="round" stroke-linejoin="round" stroke-width="1.5"/>
        <ellipse id="Ellipse_323" data-name="Ellipse 323" cx="1.908" cy="1.149" rx="1.908" ry="1.149" transform="translate(1169.018 422.638)" fill="none" stroke="#404041" stroke-linecap="round" stroke-linejoin="round" stroke-width="1.5"/>
        <circle id="Ellipse_324" data-name="Ellipse 324" cx="0.575" cy="0.575" r="0.575" transform="translate(1168.436 420.435)" fill="#404041"/>
        <circle id="Ellipse_325" data-name="Ellipse 325" cx="0.575" cy="0.575" r="0.575" transform="translate(1172.267 420.435)" fill="#404041"/>
        <path id="Path_7632" data-name="Path 7632" d="M1174.472,418.3a2.036,2.036,0,1,1,1.841,2.9,1.947,1.947,0,0,1-.287-.02" fill="none" stroke="#404041" stroke-linecap="round" stroke-linejoin="round" stroke-width="1.5"/>
        <path id="Path_7633" data-name="Path 7633" d="M1167.526,418.3a2.035,2.035,0,1,0-1.841,2.9c.045,0,.089,0,.133,0" fill="none" stroke="#404041" stroke-linecap="round" stroke-linejoin="round" stroke-width="1.5"/>
      </g>
    </g>
  </g>
</svg>
