<svg xmlns="http://www.w3.org/2000/svg" width="27.897" height="28.168" viewBox="0 0 27.897 28.168">
  <g id="icon_gift-card" transform="translate(0.75 0.75)">
    <rect id="Rectangle_2770" data-name="Rectangle 2770" width="26.398" height="6.134" rx="2.465" transform="translate(0 5.614)" fill="none" stroke="#404041" stroke-linecap="round" stroke-linejoin="round" stroke-width="1.5"/>
    <path id="Rectangle_2771" data-name="Rectangle 2771" d="M0,0H23.485a0,0,0,0,1,0,0V11.448a3.437,3.437,0,0,1-3.437,3.437H3.437A3.437,3.437,0,0,1,0,11.448V0A0,0,0,0,1,0,0Z" transform="translate(1.457 11.782)" fill="none" stroke="#404041" stroke-linecap="round" stroke-linejoin="round" stroke-width="1.5"/>
    <path id="Rectangle_2772" data-name="Rectangle 2772" d="M2.741,0h.085A2.741,2.741,0,0,1,5.566,2.741V5.481a0,0,0,0,1,0,0H2.741A2.741,2.741,0,0,1,0,2.741v0A2.741,2.741,0,0,1,2.741,0Z" transform="translate(7.693 0.001)" fill="none" stroke="#404041" stroke-linecap="round" stroke-linejoin="round" stroke-width="1.5"/>
    <path id="Rectangle_2773" data-name="Rectangle 2773" d="M2.741,0H5.566a0,0,0,0,1,0,0V2.741A2.741,2.741,0,0,1,2.826,5.481H2.741A2.741,2.741,0,0,1,0,2.741v0A2.741,2.741,0,0,1,2.741,0Z" transform="translate(18.859 5.481) rotate(180)" fill="none" stroke="#404041" stroke-linecap="round" stroke-linejoin="round" stroke-width="1.5"/>
    <path id="Path_5495" data-name="Path 5495" d="M-125.163,70.65l-2.51-2.921-2.4,2.921V53.817h4.912Z" transform="translate(143.273 -48.202)" fill="none" stroke="#404041" stroke-linecap="round" stroke-linejoin="round" stroke-width="1.5"/>
    <rect id="Rectangle_2774" data-name="Rectangle 2774" width="3.225" height="3.225" transform="translate(5.619 15.729)" fill="none" stroke="#404041" stroke-linecap="round" stroke-linejoin="round" stroke-width="1.5"/>
  </g>
</svg>
