<svg xmlns="http://www.w3.org/2000/svg" width="24.57" height="30.058" viewBox="0 0 24.57 30.058">
  <g id="icon_book-quaran-hadith" transform="translate(0.75 0.75)">
    <g id="Group_3113" data-name="Group 3113" transform="translate(0 0)">
      <path id="Path_7514" data-name="Path 7514" d="M1231.849,373.521h-20.974a2.076,2.076,0,0,1-2.076-2.076h0a2.075,2.075,0,0,1,2.076-2.076h20.835l-.031-24.406h-9.491" transform="translate(-1208.779 -344.963)" fill="none" stroke="#404041" stroke-linecap="round" stroke-linejoin="round" stroke-width="1.5"/>
      <line id="Line_412" data-name="Line 412" y2="4.152" transform="translate(21.035 24.404)" fill="none" stroke="#404041" stroke-linecap="round" stroke-linejoin="round" stroke-width="1.5"/>
      <path id="Path_7517" data-name="Path 7517" d="M1222.426,344.963h-12.154a1.492,1.492,0,0,0-1.493,1.493h0l.02,25.031" transform="translate(-1208.779 -344.963)" fill="none" stroke="#404041" stroke-linecap="round" stroke-linejoin="round" stroke-width="1.5"/>
      <path id="Path_5744" data-name="Path 5744" d="M1224.564,352.581l2.477.323a.329.329,0,0,1,.178.574l-1.8,1.707.448,2.449a.321.321,0,0,1-.238.388l-.018,0a.318.318,0,0,1-.224-.032L1223.2,356.8l-2.182,1.191a.344.344,0,0,1-.459-.158l0,0a.338.338,0,0,1-.032-.205l.461-2.449-1.81-1.709a.333.333,0,0,1,0-.472h0a.321.321,0,0,1,.2-.1l2.46-.323,1.066-2.257a.342.342,0,0,1,.462-.141h0a.364.364,0,0,1,.143.14Z" transform="translate(-1208.779 -344.963)" fill="none" stroke="#404041" stroke-linecap="round" stroke-linejoin="round" stroke-width="1.5"/>
      <path id="Path_7630" data-name="Path 7630" d="M1222.688,362.714a7.462,7.462,0,0,1-6.623-10.911,7.466,7.466,0,1,0,10.879,9.576A7.427,7.427,0,0,1,1222.688,362.714Z" transform="translate(-1208.779 -344.963)" fill="none" stroke="#404041" stroke-linecap="round" stroke-linejoin="round" stroke-width="1.5"/>
    </g>
  </g>
</svg>
