<svg xmlns="http://www.w3.org/2000/svg" width="28.499" height="33.656" viewBox="0 0 28.499 33.656">
  <g id="icon_bestseller" transform="translate(0.742 0.743)">
    <g id="Group_3121" data-name="Group 3121" transform="translate(0.001 0)">
      <path id="Path_5740" data-name="Path 5740" d="M1074.191,466.493v6.266l3.262-2.062,3.374,2.062v-5.438" transform="translate(-1064.006 -440.596)" fill="none" stroke="#404041" stroke-linecap="round" stroke-linejoin="round" stroke-width="1.5"/>
      <path id="Path_6406" data-name="Path 6406" d="M1088.07,461.1a4.537,4.537,0,0,1,.3-1.469,4.765,4.765,0,0,1,1.054-1.162,3.111,3.111,0,0,0,.759-4.863,2.9,2.9,0,0,1-.465-2.933,4.135,4.135,0,0,0-.039-2.77,4.287,4.287,0,0,0-2.162-1.618,3.066,3.066,0,0,1-2.187-2.187,4.291,4.291,0,0,0-1.618-2.162,4.134,4.134,0,0,0-2.772-.04,2.9,2.9,0,0,1-2.931-.465,4.155,4.155,0,0,0-2.629-.811,4.1,4.1,0,0,0-2.233,1.571,4.74,4.74,0,0,1-1.161,1.054,4.54,4.54,0,0,1-1.47.3,3.184,3.184,0,0,0-3.559,3.558,4.531,4.531,0,0,1-.3,1.469,4.765,4.765,0,0,1-1.054,1.163,3.11,3.11,0,0,0-.759,4.862,2.9,2.9,0,0,1,.465,2.932,4.132,4.132,0,0,0,.04,2.771,4.3,4.3,0,0,0,2.161,1.618,3.065,3.065,0,0,1,2.187,2.188,5.638,5.638,0,0,0,1.036,1.733,2.3,2.3,0,0,0,.581.427,4.144,4.144,0,0,0,2.773.041,2.915,2.915,0,0,1,2.932.468,3.112,3.112,0,0,0,4.862-.759,4.724,4.724,0,0,1,1.162-1.054,4.561,4.561,0,0,1,1.469-.3,3.182,3.182,0,0,0,3.558-3.561Z" transform="translate(-1064.006 -440.596)" fill="none" stroke="#404041" stroke-linecap="round" stroke-linejoin="round" stroke-width="1.5"/>
      <path id="Path_5744" data-name="Path 5744" d="M1079.67,451.307l3.987.526a.529.529,0,0,1,.289.922l-2.9,2.751.724,3.943a.534.534,0,0,1-.775.58l-3.53-1.919-3.514,1.919a.555.555,0,0,1-.8-.58l.742-3.943-2.914-2.752a.539.539,0,0,1,.308-.922l3.964-.525,1.714-3.621a.554.554,0,0,1,.749-.228h0a.573.573,0,0,1,.23.228Z" transform="translate(-1064.006 -440.596)" fill="none" stroke="#404041" stroke-linecap="round" stroke-linejoin="round" stroke-width="1.5"/>
    </g>
  </g>
</svg>
