<svg xmlns="http://www.w3.org/2000/svg" width="24.57" height="30.058" viewBox="0 0 24.57 30.058">
  <g id="icon_book-history-society" transform="translate(0.75 0.75)">
    <g id="Group_3123" data-name="Group 3123" transform="translate(0 0)">
      <path id="Path_7514" data-name="Path 7514" d="M1272.63,373.686h-20.974a2.075,2.075,0,0,1-2.076-2.076h0a2.076,2.076,0,0,1,2.076-2.076h20.835l-.031-24.406h-9.491" transform="translate(-1249.561 -345.128)" fill="none" stroke="#404041" stroke-linecap="round" stroke-linejoin="round" stroke-width="1.5"/>
      <line id="Line_412" data-name="Line 412" y2="4.152" transform="translate(21.035 24.405)" fill="none" stroke="#404041" stroke-linecap="round" stroke-linejoin="round" stroke-width="1.5"/>
      <path id="Path_7517" data-name="Path 7517" d="M1263.207,345.128h-12.154a1.493,1.493,0,0,0-1.493,1.493h0l.02,25.031" transform="translate(-1249.561 -345.128)" fill="none" stroke="#404041" stroke-linecap="round" stroke-linejoin="round" stroke-width="1.5"/>
      <g id="Group_2630" data-name="Group 2630" transform="translate(-1249.561 -345.128)">
        <line id="Line_479" data-name="Line 479" y2="2.604" transform="translate(1257.456 360.18)" fill="none" stroke="#404041" stroke-linecap="round" stroke-linejoin="round" stroke-width="1.5"/>
        <line id="Line_480" data-name="Line 480" x1="2.782" transform="translate(1254.706 362.784)" fill="none" stroke="#404041" stroke-linecap="round" stroke-linejoin="round" stroke-width="1.5"/>
        <line id="Line_481" data-name="Line 481" y2="3.736" transform="translate(1260.127 354.678)" fill="none" stroke="#404041" stroke-linecap="round" stroke-linejoin="round" stroke-width="1.5"/>
        <line id="Line_482" data-name="Line 482" x1="2.938" transform="translate(1260.127 358.433)" fill="none" stroke="#404041" stroke-linecap="round" stroke-linejoin="round" stroke-width="1.5"/>
        <path id="Path_7631" data-name="Path 7631" d="M1257.325,362.555a6.327,6.327,0,1,1,2.8,1.228" fill="none" stroke="#404041" stroke-linecap="round" stroke-linejoin="round" stroke-width="1.5"/>
      </g>
    </g>
  </g>
</svg>
