<svg xmlns="http://www.w3.org/2000/svg" width="19.163" height="18.825" viewBox="0 0 19.163 18.825">
  <g id="icon_phone" transform="translate(0.752 0.75)">
    <g id="Group_2388" data-name="Group 2388">
      <path id="Path_7191" data-name="Path 7191" d="M289.427,1678.062a15.24,15.24,0,0,0,7.712,4.46c1.292.089,2.178-1.047,2.557-2.267.333-1.049-1.171-2.23-2.389-2.917-1.8-1.082-2.182-.629-2.681.167" transform="translate(-284.959 -1665.204)" fill="none" stroke="#ee5f3b" stroke-linecap="round" stroke-linejoin="round" stroke-width="1.5"/>
      <path id="Path_7192" data-name="Path 7192" d="M244.421,1587.855a15.242,15.242,0,0,1-4.46-7.712c-.089-1.292,1.047-2.178,2.267-2.557,1.049-.333,2.23,1.171,2.916,2.389,1.082,1.8.629,2.182-.166,2.681" transform="translate(-239.956 -1575)" fill="none" stroke="#ee5f3b" stroke-linecap="round" stroke-linejoin="round" stroke-width="1.5"/>
      <path id="Path_7193" data-name="Path 7193" d="M344.439,1549.423a8.075,8.075,0,0,1,8.222,8.222" transform="translate(-335.002 -1549.421)" fill="none" stroke="#ee5f3b" stroke-linecap="round" stroke-linejoin="round" stroke-width="1.5"/>
      <path id="Path_7194" data-name="Path 7194" d="M343.617,1593.39a4.154,4.154,0,0,1,4.324,4.324" transform="translate(-334.255 -1589.417)" fill="none" stroke="#ee5f3b" stroke-linecap="round" stroke-linejoin="round" stroke-width="1.5"/>
    </g>
  </g>
</svg>
