<svg xmlns="http://www.w3.org/2000/svg" width="23.765" height="21.259" viewBox="0 0 23.765 21.259">
  <g id="icon_favorite" transform="translate(0.75 0.75)">
    <path id="Path_5613" data-name="Path 5613" d="M-165.3-43.662a6.222,6.222,0,0,0-6.349,6.388c.011,2.566,1.766,5.168,3.961,7.5a41.969,41.969,0,0,0,6.886,5.756.506.506,0,0,0,.569,0,41.971,41.971,0,0,0,6.887-5.756c2.195-2.335,3.95-4.937,3.961-7.5a6.222,6.222,0,0,0-6.349-6.388,6.859,6.859,0,0,0-4.784,1.992A6.859,6.859,0,0,0-165.3-43.662Z" transform="translate(171.649 43.662)" fill="none" stroke="#ee5f3b" stroke-miterlimit="10" stroke-width="1.5"/>
  </g>
</svg>
