<svg xmlns="http://www.w3.org/2000/svg" width="22.596" height="20.182" viewBox="0 0 22.596 20.182">
  <g id="icon_share" transform="translate(0.75 0.772)">
    <path id="Path_7829" data-name="Path 7829" d="M693.455,410.5l-7.587-7.879a.875.875,0,0,0-1.505.608v3.794h-.292a11.393,11.393,0,0,0-11.38,11.38v1.75a.864.864,0,0,0,.682.837.743.743,0,0,0,.192.024.906.906,0,0,0,.8-.5,9.573,9.573,0,0,1,8.611-5.322h1.387v3.793a.875.875,0,0,0,1.505.607l7.587-7.878A.875.875,0,0,0,693.455,410.5Z" transform="translate(-672.691 -402.35)" fill="none" stroke="#53acaa" stroke-linecap="round" stroke-linejoin="round" stroke-width="1.5"/>
  </g>
</svg>
