<svg xmlns="http://www.w3.org/2000/svg" width="67.936" height="34.533" viewBox="0 0 67.936 34.533">
  <g id="icon_money-back-guarantee" transform="translate(1 1)">
    <line id="Line_95" data-name="Line 95" x2="65.936" transform="translate(0 32.533)" fill="none" stroke="#ee5f3b" stroke-linecap="round" stroke-linejoin="round" stroke-width="2"/>
    <path id="Rectangle_2779" data-name="Rectangle 2779" d="M4.085,0H31.807a4.086,4.086,0,0,1,4.086,4.086v23.96a4.086,4.086,0,0,1-4.086,4.086H4.086A4.086,4.086,0,0,1,0,28.046V4.085A4.085,4.085,0,0,1,4.085,0Z" transform="translate(15.021)" fill="#fff" stroke="#ee5f3b" stroke-linecap="round" stroke-linejoin="round" stroke-width="2"/>
    <path id="Rectangle_2778" data-name="Rectangle 2778" d="M0,0H24.569a3,3,0,0,1,3,3V27a3,3,0,0,1-3,3H0a0,0,0,0,1,0,0V0A0,0,0,0,1,0,0Z" transform="translate(22.346 1.066)" fill="#e7e4d7"/>
    <path id="Path_5499" data-name="Path 5499" d="M-141.915-2.263l-3.836-2.255-3.671,2.255v-13h7.508Z" transform="translate(178.672 15.26)" fill="#fff" stroke="#ee5f3b" stroke-linecap="round" stroke-linejoin="round" stroke-width="2"/>
    <circle id="Ellipse_99" data-name="Ellipse 99" cx="8.984" cy="8.984" r="8.984" transform="translate(41.734 9.249)" fill="#fff" stroke="#ee5f3b" stroke-linecap="round" stroke-linejoin="round" stroke-width="2"/>
    <g id="Group_2649" data-name="Group 2649">
      <path id="Path_5500" data-name="Path 5500" d="M-129.925,4.492h7.911a2.481,2.481,0,0,1,2.237,2.668v.267a2.481,2.481,0,0,1-2.237,2.668h-5.675" transform="translate(175.404 11.95)" fill="none" stroke="#b6b39f" stroke-linecap="round" stroke-linejoin="round" stroke-width="1.5"/>
      <line id="Line_96" data-name="Line 96" x1="2.236" y2="2.236" transform="translate(45.537 14.075)" fill="none" stroke="#b6b39f" stroke-linecap="round" stroke-linejoin="round" stroke-width="1.5"/>
      <line id="Line_97" data-name="Line 97" x1="2.236" y1="2.236" transform="translate(45.537 16.572)" fill="none" stroke="#b6b39f" stroke-linecap="round" stroke-linejoin="round" stroke-width="1.5"/>
    </g>
    <line id="Line_98" data-name="Line 98" x2="8.201" transform="translate(19.627 20.076)" fill="none" stroke="#ee5f3b" stroke-linecap="round" stroke-linejoin="round" stroke-width="2"/>
    <line id="Line_99" data-name="Line 99" x2="8.201" transform="translate(19.627 25.07)" fill="none" stroke="#ee5f3b" stroke-linecap="round" stroke-linejoin="round" stroke-width="2"/>
  </g>
</svg>
