<svg xmlns="http://www.w3.org/2000/svg" width="49.787" height="39.854" viewBox="0 0 49.787 39.854">
  <g id="icon_same-day-delivery" transform="translate(1 1)">
    <g id="Vrstva_1" data-name="Vrstva 1" transform="translate(14.064)">
      <circle id="Ellipse_246" data-name="Ellipse 246" cx="16.861" cy="16.861" r="16.861" transform="translate(0 4.131)" fill="#fff" stroke="#ee5f3b" stroke-linecap="round" stroke-linejoin="round" stroke-width="2"/>
      <path id="Path_7146" data-name="Path 7146" d="M55.07,30.66V42.636l8.455,8.442A11.96,11.96,0,0,0,55.07,30.66Z" transform="translate(-38.209 -21.628)" fill="#e7e4d7"/>
      <circle id="Ellipse_247" data-name="Ellipse 247" cx="1.495" cy="1.495" r="1.495" transform="translate(3.406 19.498)" fill="#b6b39f"/>
      <circle id="Ellipse_248" data-name="Ellipse 248" cx="1.495" cy="1.495" r="1.495" transform="translate(15.367 31.458)" fill="#b6b39f"/>
      <circle id="Ellipse_249" data-name="Ellipse 249" cx="1.495" cy="1.495" r="1.495" transform="translate(15.367 7.537)" fill="#b6b39f"/>
      <circle id="Ellipse_250" data-name="Ellipse 250" cx="1.495" cy="1.495" r="1.495" transform="translate(27.324 19.498)" fill="#b6b39f"/>
      <circle id="Ellipse_251" data-name="Ellipse 251" cx="3.294" cy="3.294" r="3.294" transform="translate(13.641 17.499)" fill="#ee5f3b"/>
      <line id="Line_336" data-name="Line 336" x2="11.675" y2="12.162" transform="translate(13.641 17.288)" fill="none" stroke="#ee5f3b" stroke-linecap="round" stroke-linejoin="round" stroke-width="2"/>
      <line id="Line_337" data-name="Line 337" y1="4.134" transform="translate(16.935 0)" fill="none" stroke="#ee5f3b" stroke-linecap="round" stroke-linejoin="round" stroke-width="2"/>
      <line id="Line_338" data-name="Line 338" x2="6.585" transform="translate(13.641 0)" fill="none" stroke="#ee5f3b" stroke-linecap="round" stroke-linejoin="round" stroke-width="2"/>
      <line id="Line_339" data-name="Line 339" x1="1.732" y1="2.476" transform="translate(5.902 4.186)" fill="none" stroke="#ee5f3b" stroke-linecap="round" stroke-linejoin="round" stroke-width="2"/>
      <line id="Line_340" data-name="Line 340" y1="2.553" x2="3.644" transform="translate(3.926 2.566)" fill="none" stroke="#ee5f3b" stroke-linecap="round" stroke-linejoin="round" stroke-width="2"/>
      <line id="Line_341" data-name="Line 341" y1="2.476" x2="1.732" transform="translate(25.977 4.186)" fill="none" stroke="#ee5f3b" stroke-linecap="round" stroke-linejoin="round" stroke-width="2"/>
      <line id="Line_342" data-name="Line 342" x1="3.644" y1="2.553" transform="translate(26.041 2.566)" fill="none" stroke="#ee5f3b" stroke-linecap="round" stroke-linejoin="round" stroke-width="2"/>
    </g>
    <line id="Line_343" data-name="Line 343" x2="7.039" transform="translate(0 20.854)" fill="none" stroke="#ee5f3b" stroke-linecap="round" stroke-linejoin="round" stroke-width="2"/>
    <line id="Line_344" data-name="Line 344" x2="4" transform="translate(4.039 13.854)" fill="none" stroke="#ee5f3b" stroke-linecap="round" stroke-linejoin="round" stroke-width="2"/>
    <line id="Line_345" data-name="Line 345" x2="5" transform="translate(3.039 27.854)" fill="none" stroke="#ee5f3b" stroke-linecap="round" stroke-linejoin="round" stroke-width="2"/>
  </g>
</svg>
