<svg xmlns="http://www.w3.org/2000/svg" width="24.57" height="30.058" viewBox="0 0 24.57 30.058">
  <g id="icon_book-islam-life" transform="translate(0.75 0.75)">
    <g id="Group_3124" data-name="Group 3124" transform="translate(-0.001 0)">
      <path id="Path_7514" data-name="Path 7514" d="M1147.928,437.38h-20.974a2.076,2.076,0,0,1-2.076-2.076h0a2.077,2.077,0,0,1,2.076-2.076h20.835l-.031-24.406h-9.491" transform="translate(-1124.857 -408.822)" fill="none" stroke="#404041" stroke-linecap="round" stroke-linejoin="round" stroke-width="1.5"/>
      <line id="Line_412" data-name="Line 412" y2="4.152" transform="translate(21.037 24.405)" fill="none" stroke="#404041" stroke-linecap="round" stroke-linejoin="round" stroke-width="1.5"/>
      <path id="Path_7517" data-name="Path 7517" d="M1138.505,408.822h-12.154a1.494,1.494,0,0,0-1.493,1.493h0l.02,25.031" transform="translate(-1124.857 -408.822)" fill="none" stroke="#404041" stroke-linecap="round" stroke-linejoin="round" stroke-width="1.5"/>
      <path id="Path_7372" data-name="Path 7372" d="M1141.005,423.1l2-2-2-2v-2.834h-2.834l-2-2-2,2h-2.834v2.834l-2,2,2,2v2.834h2.834l2,2,2-2h2.834Z" transform="translate(-1124.857 -408.822)" fill="none" stroke="#404041" stroke-linecap="round" stroke-linejoin="round" stroke-width="1.5"/>
    </g>
  </g>
</svg>
