<svg xmlns="http://www.w3.org/2000/svg" width="48.966" height="45.404" viewBox="0 0 48.966 45.404">
  <g id="icon_price-match-guarantee" transform="translate(1 1.013)">
    <g id="Group_2489" data-name="Group 2489" transform="translate(-728.929 -3876.444)">
      <path id="Path_7336" data-name="Path 7336" d="M749.132,3892.7l-6.923-6.389a3.749,3.749,0,0,0-5.073-.011l-6.99,6.4a3.747,3.747,0,0,0-1.217,2.765v20.62a3.748,3.748,0,0,0,3.748,3.748H746.59a3.748,3.748,0,0,0,3.748-3.748v-20.629A3.749,3.749,0,0,0,749.132,3892.7Z" fill="#fff" stroke="#ee5f3b" stroke-linecap="round" stroke-linejoin="round" stroke-width="2"/>
      <circle id="Ellipse_252" data-name="Ellipse 252" cx="1.941" cy="1.941" r="1.941" transform="translate(737.692 3888.329)" fill="none" stroke="#ee5f3b" stroke-linecap="round" stroke-linejoin="round" stroke-width="2"/>
      <path id="Path_7337" data-name="Path 7337" d="M736.559,3887.187c-2.734-3.145-3.307-7.162-1.213-9.256,2.232-2.232,6.649-1.433,9.865,1.783s4.015,7.634,1.783,9.866a4.022,4.022,0,0,1-.5.425" fill="none" stroke="#ee5f3b" stroke-linecap="round" stroke-linejoin="round" stroke-width="2"/>
      <path id="Path_7338" data-name="Path 7338" d="M738.15,3888.707a11.706,11.706,0,0,1-1.021-.91q-.3-.3-.57-.61" fill="none" stroke="#ee5f3b" stroke-linecap="round" stroke-linejoin="round" stroke-width="2"/>
    </g>
    <circle id="Ellipse_256" data-name="Ellipse 256" cx="5.536" cy="5.536" r="5.536" transform="translate(4.946 23.365)" fill="#b6b39f"/>
    <g id="Group_2490" data-name="Group 2490" transform="translate(-727.65 -3876.666)">
      <path id="Path_7339" data-name="Path 7339" d="M773.41,3892.7l-6.922-6.389a3.75,3.75,0,0,0-5.074-.011l-6.99,6.4a3.751,3.751,0,0,0-1.217,2.765v20.62a3.748,3.748,0,0,0,3.748,3.748h13.913a3.748,3.748,0,0,0,3.748-3.748v-20.629A3.749,3.749,0,0,0,773.41,3892.7Z" fill="#fff" stroke="#ee5f3b" stroke-linecap="round" stroke-linejoin="round" stroke-width="2"/>
      <circle id="Ellipse_253" data-name="Ellipse 253" cx="1.941" cy="1.941" r="1.941" transform="translate(761.97 3888.329)" fill="none" stroke="#ee5f3b" stroke-linecap="round" stroke-linejoin="round" stroke-width="2"/>
      <path id="Path_7340" data-name="Path 7340" d="M760.838,3887.187c-2.735-3.145-3.308-7.162-1.214-9.256,2.232-2.232,6.649-1.433,9.866,1.783s4.015,7.634,1.783,9.866a4.1,4.1,0,0,1-.5.425" fill="none" stroke="#ee5f3b" stroke-linecap="round" stroke-linejoin="round" stroke-width="2"/>
      <path id="Path_7341" data-name="Path 7341" d="M762.428,3888.707a11.724,11.724,0,0,1-1.021-.91q-.3-.3-.569-.61" fill="none" stroke="#ee5f3b" stroke-linecap="round" stroke-linejoin="round" stroke-width="2"/>
    </g>
    <circle id="Ellipse_257" data-name="Ellipse 257" cx="5.536" cy="5.536" r="5.536" transform="translate(30.945 23.364)" fill="#b6b39f"/>
    <circle id="Ellipse_254" data-name="Ellipse 254" cx="7.816" cy="7.816" r="7.816" transform="translate(15.645 21.586)" fill="#e7e4d7" stroke="#ee5f3b" stroke-linecap="round" stroke-linejoin="round" stroke-width="2"/>
    <g id="Group_2491" data-name="Group 2491" transform="translate(-727.929 -3876.443)">
      <line id="Line_346" data-name="Line 346" x2="6.191" transform="translate(748.295 3904.218)" fill="none" stroke="#ee5f3b" stroke-linecap="round" stroke-linejoin="round" stroke-width="2"/>
      <line id="Line_347" data-name="Line 347" x2="6.191" transform="translate(748.295 3907.472)" fill="none" stroke="#ee5f3b" stroke-linecap="round" stroke-linejoin="round" stroke-width="2"/>
    </g>
  </g>
</svg>
