<svg id="icon_twitter" xmlns="http://www.w3.org/2000/svg" width="18.184" height="14.778" viewBox="0 0 18.184 14.778">
  <path id="Path_4467" data-name="Path 4467" d="M18.184,1.749a7.455,7.455,0,0,1-2.143.588A3.742,3.742,0,0,0,17.682.273a7.475,7.475,0,0,1-2.37.905,3.734,3.734,0,0,0-6.357,3.4A10.592,10.592,0,0,1,1.266.683a3.734,3.734,0,0,0,1.155,4.98A3.713,3.713,0,0,1,.731,5.2v.047A3.733,3.733,0,0,0,3.723,8.9a3.713,3.713,0,0,1-.983.131,3.782,3.782,0,0,1-.7-.067,3.736,3.736,0,0,0,3.485,2.591,7.485,7.485,0,0,1-4.633,1.6A7.488,7.488,0,0,1,0,13.1a10.557,10.557,0,0,0,5.719,1.677A10.543,10.543,0,0,0,16.334,4.163c0-.162,0-.323-.011-.482A7.584,7.584,0,0,0,18.184,1.749Z" fill="#ee5f3b"/>
</svg>
