<svg id="logo_linkedin" xmlns="http://www.w3.org/2000/svg" width="15.657" height="14.965" viewBox="0 0 15.657 14.965">
  <path id="Path_5616" data-name="Path 5616" d="M1348.057-105.064v-10.1H1344.7v10.1Zm-1.677-11.476a1.751,1.751,0,0,0,1.9-1.744,1.744,1.744,0,0,0-1.876-1.745,1.751,1.751,0,0,0-1.9,1.745,1.737,1.737,0,0,0,1.855,1.744Zm3.535,11.476h3.356V-110.7a2.3,2.3,0,0,1,.11-.819,1.837,1.837,0,0,1,1.722-1.228c1.214,0,1.7.927,1.7,2.284v5.4h3.356v-5.79c0-3.1-1.656-4.544-3.864-4.544a3.345,3.345,0,0,0-3.047,1.7h.023v-1.464h-3.356c.044.948,0,10.1,0,10.1Z" transform="translate(-1344.503 120.029)" fill="#ee5f3b"/>
</svg>
