<svg id="logo_azoom-vertical-colorful" xmlns="http://www.w3.org/2000/svg" width="198.836" height="44.116" viewBox="0 0 198.836 44.116">
  <g id="Group_2369" data-name="Group 2369">
    <g id="Layer_4" data-name="Layer 4" transform="translate(57.783 14.604)">
      <g id="Group_2368" data-name="Group 2368">
        <path id="Path_1" data-name="Path 1" d="M373.141,150.136h-13.12L358.13,154.4h-4.711l13.034-28.608h.258L379.745,154.4h-4.712Zm-1.685-3.774-4.866-10.957-4.884,10.957Z" transform="translate(-353.418 -125.753)" fill="#404041"/>
        <path id="Path_2" data-name="Path 2" d="M509.069,133.018H496.5v-4.365H516L503.446,152.3H516v4.382H496.5Z" transform="translate(-468.161 -128.044)" fill="#404041"/>
        <path id="Path_3" data-name="Path 3" d="M605.459,140.762A14.333,14.333,0,1,1,619.766,155.2,14.463,14.463,0,0,1,605.459,140.762Zm24.263-.035a9.939,9.939,0,1,0-9.956,10.017A10.042,10.042,0,0,0,629.722,140.727Z" transform="translate(-555.541 -126.101)" fill="#404041"/>
        <path id="Path_4" data-name="Path 4" d="M763.647,140.762A14.333,14.333,0,1,1,777.954,155.2,14.463,14.463,0,0,1,763.647,140.762Zm24.263-.035a9.939,9.939,0,1,0-9.956,10.017A10.042,10.042,0,0,0,787.91,140.727Z" transform="translate(-682.4 -126.101)" fill="#404041"/>
        <path id="Path_5" data-name="Path 5" d="M955.67,125.615v28.643h-4.35V138.71l-9.2,15.078h-.034l-9.217-15.1v15.565h-4.351V125.615h.327L942.1,146l13.241-20.382Z" transform="translate(-814.617 -125.615)" fill="#404041"/>
      </g>
    </g>
    <g id="logo_azoom-symbol-colorful">
      <g id="Group_2371" data-name="Group 2371">
        <path id="Path_6" data-name="Path 6" d="M152.424,143.645l17.928,7.8s2,1.295,3.682-1.457S184.6,131.438,184.6,131.438s1.393-2.042-2.081-3.222-22.54-6.821-22.54-6.821Z" transform="translate(-134.448 -107.636)" fill="#404041"/>
        <path id="Path_7" data-name="Path 7" d="M79.638,111.561l7.553-22.25L67.333,81.643s-2.581-1.3-3.141.971-2.481,21.875-2.481,21.875a2.382,2.382,0,0,0,1.6,2.813C65.392,107.95,79.638,111.561,79.638,111.561Z" transform="translate(-61.662 -75.552)" fill="#53acaa"/>
        <path id="Path_8" data-name="Path 8" d="M102.6,88.342,110.9,64.3,97.076,52.888s-1.441-1.032-1.881,1.821-4.722,20.277-4.722,20.277-.72,2.337.72,3.582S102.6,88.342,102.6,88.342Z" transform="translate(-84.622 -52.706)" fill="#ef603c"/>
        <path id="Path_9" data-name="Path 9" d="M152.424,134.634l8.3-24.041,19.252.243s2.4-.121,1.5,2.125-9.064,19.791-9.064,19.791a3.855,3.855,0,0,1-2.986,2.226C166.423,135.127,152.424,134.634,152.424,134.634Z" transform="translate(-134.448 -98.998)" fill="#e7e4d7"/>
      </g>
    </g>
  </g>
</svg>
