<svg id="logo_instagram" xmlns="http://www.w3.org/2000/svg" width="18.81" height="18.81" viewBox="0 0 18.81 18.81">
  <path id="Path_5505" data-name="Path 5505" d="M18.754,5.528a6.894,6.894,0,0,0-.437-2.283,4.607,4.607,0,0,0-1.085-1.666A4.61,4.61,0,0,0,15.566.494,6.916,6.916,0,0,0,13.283.057C12.312.012,11.981,0,9.638,0H9.172C6.831,0,6.5.012,5.528.057A6.916,6.916,0,0,0,3.244.494,4.617,4.617,0,0,0,1.579,1.579,4.617,4.617,0,0,0,.494,3.244,6.916,6.916,0,0,0,.057,5.528C.01,6.531,0,6.851,0,9.405s.01,2.875.057,3.878a6.916,6.916,0,0,0,.437,2.283,4.61,4.61,0,0,0,1.085,1.666,4.607,4.607,0,0,0,1.666,1.085,6.914,6.914,0,0,0,2.283.437c1,.046,1.323.056,3.878.056s2.875-.01,3.878-.056a6.914,6.914,0,0,0,2.283-.437,4.814,4.814,0,0,0,2.751-2.751,6.894,6.894,0,0,0,.437-2.283c.044-.971.055-1.3.056-3.645V9.172C18.81,6.831,18.8,6.5,18.754,5.528Zm-1.693,7.678a5.2,5.2,0,0,1-.324,1.746,3.119,3.119,0,0,1-1.785,1.785,5.2,5.2,0,0,1-1.746.324c-.992.046-1.289.055-3.8.055s-2.809-.009-3.8-.055a5.213,5.213,0,0,1-1.746-.324,2.916,2.916,0,0,1-1.081-.7,2.908,2.908,0,0,1-.7-1.081,5.2,5.2,0,0,1-.324-1.746c-.045-.992-.055-1.289-.055-3.8S1.7,6.6,1.749,5.6a5.207,5.207,0,0,1,.324-1.746,2.908,2.908,0,0,1,.7-1.081,2.914,2.914,0,0,1,1.081-.7A5.207,5.207,0,0,1,5.6,1.749c.992-.045,1.29-.055,3.8-.055s2.809.01,3.8.055a5.2,5.2,0,0,1,1.746.324,2.908,2.908,0,0,1,1.081.7,2.91,2.91,0,0,1,.7,1.081A5.213,5.213,0,0,1,17.061,5.6c.046.992.055,1.29.055,3.8S17.107,12.214,17.061,13.206Z" fill="#ee5f3b"/>
  <path id="Path_5506" data-name="Path 5506" d="M10.94,6.11a4.83,4.83,0,1,0,4.83,4.83A4.829,4.829,0,0,0,10.94,6.11Zm0,7.965a3.135,3.135,0,1,1,3.136-3.136A3.135,3.135,0,0,1,10.94,14.075Z" transform="translate(-1.534 -1.534)" fill="#ee5f3b"/>
  <path id="Path_5507" data-name="Path 5507" d="M18.885,4.348a1.129,1.129,0,1,0,1.129,1.129A1.129,1.129,0,0,0,18.885,4.348Z" transform="translate(-4.459 -1.092)" fill="#ee5f3b"/>
</svg>
