<svg id="medal_bronze" xmlns="http://www.w3.org/2000/svg" width="26.455" height="38.293" viewBox="0 0 26.455 38.293">
  <g id="Group_2840" data-name="Group 2840">
    <path id="Path_7683" data-name="Path 7683" d="M770.447,468.277l-7.1,2.8a1.337,1.337,0,0,1-.976,0l-7.095-2.8a1.33,1.33,0,0,1-.841-1.236v-5.364h16.848v5.364A1.328,1.328,0,0,1,770.447,468.277Z" transform="translate(-749.637 -460.428)" fill="#d6d2c3"/>
    <rect id="Rectangle_3959" data-name="Rectangle 3959" width="4.168" height="3.721" transform="translate(11.145 9.545)" fill="#e7e4d8"/>
    <path id="Path_7685" data-name="Path 7685" d="M13.228,0A13.228,13.228,0,1,1,0,13.228,13.228,13.228,0,0,1,13.228,0Z" transform="translate(0 11.838)" fill="#ee873b"/>
    <path id="Path_5744" data-name="Path 5744" d="M764.3,483.9l2.606.344a.346.346,0,0,1,.189.6l-1.9,1.8.473,2.578a.349.349,0,0,1-.506.379l-2.308-1.254-2.3,1.254a.363.363,0,0,1-.488-.158.359.359,0,0,1-.035-.221l.485-2.578-1.905-1.8a.351.351,0,0,1-.008-.5.346.346,0,0,1,.209-.1l2.591-.344,1.121-2.367a.362.362,0,0,1,.49-.149h0a.378.378,0,0,1,.15.149Z" transform="translate(-749.637 -460.428)" fill="#fff" stroke="#fff" stroke-miterlimit="10" stroke-width="0.665"/>
    <circle id="Ellipse_351" data-name="Ellipse 351" cx="9.638" cy="9.638" r="9.638" transform="translate(3.59 15.428)" fill="none" stroke="#fff" stroke-miterlimit="10" stroke-width="0.997"/>
    <path id="Path_7684" data-name="Path 7684" d="M763.352,471.076l3.04-1.2v-8.035h-7.055v8.035l3.039,1.2A1.337,1.337,0,0,0,763.352,471.076Z" transform="translate(-749.637 -460.428)" fill="#c0bdb0"/>
    <rect id="Rectangle_3960" data-name="Rectangle 3960" width="20.019" height="2.832" rx="0.911" transform="translate(3.219)" fill="#b6b3a1"/>
  </g>
</svg>
